<svg version="1.2" xmlns="http://www.w3.org/2000/svg" viewBox="0 0 824 896" width="824" height="896">
	<title>Panzu_V</title>
	<style>
		.s0 { fill: #000000 } 
		.s1 { fill: #000000;stroke: #000000;stroke-miterlimit:10 } 
		.s2 { fill: #000000;stroke: #211915;stroke-miterlimit:10 } 
	</style>
	<g id="Black">
		<path id="&lt;Path&gt;" class="s0" d="m798.4 388.7q0 0-0.7 0.1c-0.5 0-1.2 0-2.1 0.1-1.8 0.2-4.5 0.7-8 1.7-6.9 2.1-17 6.3-28.4 14.7-11.3 8.2-23.8 20.7-34.5 38.1-10.7 17.3-19.6 39.3-25.3 64.9-2.8 12.8-4.7 26.5-5.9 41-0.7 7.2-0.9 14.6-1.2 22.2 0 7.6-0.2 15.4 0.1 23.3q0.4 11.9 1.4 24.2c0.6 8.3 1.4 16.6 2.5 25.1 1 8.5 2.3 17.1 4 25.7 1.7 8.6 3.8 17.3 6.9 25.6 1.6 4 3.4 8.1 5.7 11.4 1.2 1.6 2.5 3.1 3.8 4.1 0.7 0.5 1.4 0.9 2 1.1 0.7 0.3 1.3 0.4 1.9 0.4 0.5 0 0 0.1 0.4 0h0.9c0.1-0.1 0.3-0.1 0.6-0.2q1-0.3 1.9-1c1.3-0.9 2.6-2.3 3.8-4 2.3-3.3 4.1-7.6 5.6-11.9 3.1-8.8 5.1-18.4 6.7-28.1 1.6-9.8 2.7-19.9 3.6-30.1 0.8-10.2 1.4-20.5 1.7-31 0.4-10.6 0.4-21.1-0.1-31.8-1.1-21.4-3.8-43.2-8.3-65.1-4.6-21.9-10.8-44-20-65-4.6-10.5-9.9-20.8-16.4-30.3-3.2-4.7-6.7-9.2-10.5-13.4-3.9-4.1-8-7.9-12.5-11.2-9-6.5-19.4-10.7-30.3-11.3-0.7-0.1-1.3-0.1-2-0.1h-1.1c-0.6 0-0.2-0.1-0.7 0l-2.3 0.1-1.2 0.1-0.8 0.1q-0.8 0.1-1.7 0.3c-0.6 0.1-1.2 0.2-1.8 0.4-1.3 0.2-2.5 0.7-3.8 1.1-4.9 1.7-9.6 4.6-13.9 8.1-8.8 7.1-16.2 16.8-22.6 27.2-6.4 10.5-11.8 21.9-16.8 33.5-9.7 23.5-17.2 48.5-23.6 74.1-6.2 25.7-11.3 52-15.3 78.8-2 13.3-3.7 26.8-5.1 40.4-1.4 13.6-2.6 27.3-3.2 41-0.3 6.8-0.5 13.6-0.4 20.5 0.1 6.7 0.3 13.7 0.6 20.6 0.7 13.8 1.9 27.8 3.4 41.7 1.6 13.9 3.5 27.8 6.3 41.4 1.3 6.8 2.9 13.6 4.7 20.2 1.9 6.6 4.1 13 6.8 18.8 1.3 2.9 2.8 5.6 4.4 7.9 0.8 1.1 1.6 2.2 2.5 3 0.8 0.8 1.6 1.5 2.2 1.9 0.7 0.4 1.2 0.5 1.6 0.6 0.1 0 0.2 0.1 0.4 0.1 0.8-0.1-0.9 0-0.1 0 0.2 0 1.3-0.1 0.9-0.1-0.1-0.1-0.5 0.1-0.4 0 0.2 0 0.6-0.2 1.3-0.8 0.6-0.5 1.4-1.3 2.1-2.3 1.6-2 3.1-4.6 4.4-7.5 1.3-2.8 2.5-5.9 3.6-9.1 2.2-6.4 4-13.2 5.5-20.1 3.1-13.7 5.2-28 7-42.3 1.7-14.4 3-28.9 3.9-43.4 0.4-7.3 0.8-14.6 1-21.8l0.1-5.4v-2.7-1.3-1.3q-0.1-5.5-0.2-11.1l-0.1-5.6v-2.7c-0.1-1-0.1-1.8-0.2-2.8q-0.2-5.4-0.5-10.8c-0.2-7.3-1-14.6-1.5-21.9-2.6-29.1-7.7-58.1-15.5-86.3-7.8-28.2-18.7-55.5-33.3-80.7-7.4-12.6-15.7-24.5-24.9-35.6-9.3-11.1-19.6-21.2-30.9-30q-1-0.8-2-1.6l-2.2-1.6-4.4-3.1c-0.7-0.5-1.4-1-2.2-1.5l-2.2-1.4c-1.5-0.9-3-1.9-4.5-2.8l-4.7-2.5-2.3-1.3c-0.8-0.4-1.6-0.8-2.4-1.2l-4.7-2.2c-1.6-0.8-3.2-1.4-4.8-2-3.2-1.5-6.6-2.4-9.9-3.5-1.6-0.6-3.3-0.9-5-1.4l-2.5-0.6c-0.8-0.3-1.6-0.4-2.5-0.5l-5-1-5.1-0.5c-1.7-0.3-3.3-0.2-5-0.3l-2.5-0.1c-0.5-0.1-0.1-0.1-1 0h-1.4c-13.2 0.4-26.8 4.5-39.6 10.3-0.8 0.4-1.7 0.7-2.4 1.1l-2.4 1.2c-1.6 0.8-3.2 1.6-4.7 2.4l-4.7 2.7-2.3 1.3c-0.7 0.4-1.5 0.9-2.2 1.4l-4.5 2.9q-1.2 0.7-2.2 1.5l-2.2 1.6-4.4 3.1-4.2 3.4c-11.2 8.9-21.4 19.2-30.6 30.3-9.2 11.1-17.5 23.1-24.8 35.7l-5.3 9.5c-1.7 3.3-3.2 6.5-4.9 9.8-1.7 3.2-3 6.6-4.5 9.9-1.5 3.4-3.1 6.6-4.3 10.1l-4 10.2c-1.2 3.4-2.3 6.9-3.5 10.4l-1.8 5.1-1.5 5.3-3.1 10.5c-7.5 28.3-12.2 57.4-14.6 86.5-0.7 7.3-0.9 14.6-1.4 21.9l-0.3 5.5c-0.1 1.8 0 3.7-0.1 5.5q-0.1 5.5-0.2 11c-0.2 7.3-0.1 14.4 0.2 21.7q0.4 10.9 1.1 21.8c1 14.5 2.3 29 4.2 43.3 2 14.3 4.4 28.5 7.8 42 1.8 6.8 3.8 13.5 6.3 19.6 1.2 3 2.6 5.9 4.1 8.5 1.5 2.6 3.2 4.8 4.7 6.1 0.7 0.7 1.4 1.1 1.9 1.3q0.2 0.1 0.3 0.1c0.1 0.1 0.2 0.1 0.3 0.1 0.1 0 0.2 0.1 0.3 0.1-0.1 0 0.6 0-0.2 0 0.3 0 1.2 0 1-0.1-0.1 0-0.5 0.1-0.4 0.1 0-0.1 0.1 0 0.1-0.1 0.1-0.1 0.2-0.1 0.3-0.1 0.5-0.2 1.2-0.8 1.9-1.6 0.4-0.3 0.8-0.9 1.2-1.3 0.4-0.5 0.8-1 1.2-1.6 0.8-1.1 1.5-2.5 2.3-3.8 1.4-2.7 2.7-5.6 4-8.7 2.4-6.2 4.4-12.8 6.1-19.5 1.8-6.7 3.3-13.5 4.6-20.4 2.7-13.7 4.7-27.6 6.3-41.5 1.7-13.9 2.9-27.8 3.7-41.6 0.3-6.9 0.6-13.8 0.5-20.5 0-6.9-0.3-13.7-0.6-20.5-0.8-13.7-2.1-27.4-3.6-40.9q-2.4-20.4-5.5-40.5c-4.3-26.7-9.6-53-16.1-78.6-6.5-25.5-14.2-50.5-24.1-73.9-2.5-5.8-5.1-11.6-7.9-17.2-2.8-5.5-5.9-11-9.1-16.1-3.3-5.2-6.8-10.1-10.6-14.6-3.8-4.5-8-8.5-12.4-11.7-4.5-3.3-9.3-5.5-14.1-6.6-2.5-0.4-4.9-0.7-7.4-0.5l-2.4 0.1h-1.1c-0.5 0-0.8 0.1-1.1 0.1q-1.9 0.3-3.7 0.6c-5.3 1-10.6 2.8-15.5 5.2-5 2.6-9.7 5.6-14.1 9.2-8.8 7.1-16.4 15.9-22.9 25.4-6.6 9.5-12.1 19.6-16.9 30.1-9.5 20.9-16 42.8-20.4 64.6-2.2 11-3.8 21.9-4.9 32.8-1.1 10.9-1.8 21.7-1.9 32.3-0.2 10.7 0.2 21.4 0.8 31.8 0.6 10.5 1.4 20.9 2.5 31.1 1.1 10.2 2.5 20.2 4.3 29.9 1.9 9.7 4.2 19.2 7.7 27.7 0.8 2.1 1.8 4.2 2.9 6 1 1.9 2.2 3.6 3.5 4.9 0.6 0.7 1.3 1.2 1.9 1.7 0.6 0.4 1.2 0.6 1.8 0.8q0.2 0 0.5 0.1c0.1 0 0.3 0 0.4 0 0.2 0-0.2 0.1 0.4 0 0.2 0 0.8 0 0.7 0q0.2-0.1 0.3-0.1l0.4-0.1c0.2 0 0.3-0.1 0.5-0.2 0.1-0.1 0.3-0.1 0.4-0.2 0.7-0.3 1.3-0.8 2-1.4 0.6-0.6 1.3-1.2 1.9-2 1.2-1.5 2.3-3.3 3.3-5.2 2-3.8 3.6-7.9 5-12.2 2.8-8.4 4.8-17.2 6.4-25.8 1.7-8.7 2.9-17.3 4-25.8 1-8.5 1.8-16.8 2.5-25.1 0.6-8.2 1.1-16.3 1.3-24.2 0.1-1.9 0.1-4 0.1-5.8q0-3 0-5.9c0-2 0-3.9 0-5.9q-0.1-2.8-0.2-5.7c-0.1-1.9-0.1-3.7-0.2-5.6q-0.1-2.8-0.3-5.6c-0.1-1.8-0.2-3.7-0.4-5.5q-0.2-2.8-0.4-5.5c-1.3-14.4-3.4-28.1-6.2-41-5.6-25.6-14.4-47.7-25-65-5.4-8.7-11.2-16.1-17.1-22.4-6-6.2-12.1-11.1-18-14.9q-1.1-0.7-2.2-1.4c-0.7-0.4-1.4-0.9-2.2-1.2q-2.2-1.2-4.2-2.3-2.1-0.9-4.1-1.8-0.5-0.2-1-0.4-0.5-0.2-1-0.4-1-0.3-1.9-0.7c-2.5-1-4.9-1.5-7.1-2.1-2.1-0.6-4.2-0.9-5.9-1.3q-2.7-0.3-4.8-0.6c-1.3-0.2-2.5-0.1-3.4-0.2q-2.8-0.1-2.8-0.1v-1.2q0 0 2.8 0.1c1 0 2.1 0 3.5 0.1q2.1 0.3 4.9 0.6c1.8 0.3 3.8 0.7 6.1 1.2 2.2 0.6 4.6 1.1 7.2 2.1q1 0.3 2 0.7 0.5 0.1 1 0.3 0.5 0.2 1 0.4 2 0.9 4.2 1.8 2.1 1.1 4.3 2.3c0.8 0.3 1.5 0.8 2.3 1.2q1.1 0.7 2.2 1.4c6.1 3.8 12.4 8.7 18.6 15 6.1 6.2 12.1 13.8 17.6 22.5 5.5 8.7 10.6 18.7 15 29.6 4.4 11 8.2 23.1 11.2 36 6 25.9 9 55.3 8.6 87.3-0.3 16-1.4 32.6-3.4 49.8-0.9 8.5-2.1 17.2-3.7 26.1-1.6 8.8-3.5 17.7-6.3 26.5-1.4 4.4-3.1 8.8-5.3 13.1-1.1 2.1-2.3 4.1-3.8 6-1.5 1.9-3.3 3.7-5.5 4.9-1.1 0.6-2.3 1-3.6 1.2-0.4 0.1-0.7 0.1-1 0.1-0.2 0-0.6 0-0.9 0-0.4 0-0.7 0-1-0.1l-0.9-0.2c-2.6-0.6-4.7-2.1-6.5-3.8-1.7-1.8-3.2-3.9-4.4-6-1.3-2.2-2.3-4.4-3.3-6.7-3.8-9.1-6.2-18.8-8.2-28.7-2-10-3.5-20.1-4.7-30.4q-1.8-15.4-2.8-31.3c-0.6-10.6-1.1-21.4-1-32.3 0-10.9 0.6-21.9 1.7-33 1-11.1 2.6-22.2 4.7-33.4 4.3-22.4 10.8-44.8 20.5-66.5 4.8-10.8 10.5-21.4 17.3-31.4l2.6-3.7c0.9-1.2 1.7-2.5 2.7-3.7 1.9-2.3 3.7-4.8 5.8-7 4-4.7 8.5-8.9 13.2-12.9 4.8-3.9 10-7.3 15.5-10.2 5.6-2.8 11.5-4.9 17.7-6.1l4.8-0.7c0.7-0.2 1.5-0.2 2.3-0.2l2.3-0.1c3.2-0.3 6.4 0.1 9.6 0.6 6.3 1.4 12.2 4.2 17.4 7.9 5.2 3.7 9.9 8.2 14 13.1 4.2 4.8 8 10.1 11.5 15.5 3.4 5.4 6.6 11.1 9.6 16.9 2.9 5.7 5.7 11.6 8.2 17.6 10.3 24 18.2 49.3 25 75.2 6.7 25.8 12.2 52.4 16.6 79.3 4.4 27 7.9 54.5 9.6 82.4 0.4 7 0.7 14 0.8 21 0 7-0.2 14.1-0.6 21.1-0.7 14.1-1.9 28.2-3.5 42.3-1.6 14.1-3.6 28.3-6.3 42.4-1.4 7-2.9 14-4.7 21-1.8 7-3.8 13.9-6.5 20.7-1.3 3.4-2.8 6.7-4.5 10-0.9 1.6-1.8 3.2-2.8 4.7-1.1 1.5-2.2 3-3.5 4.4-1.3 1.3-2.8 2.6-4.5 3.5-0.4 0.3-0.9 0.4-1.3 0.7-0.4 0.2-0.9 0.3-1.4 0.5-0.5 0.1-1 0.2-1.5 0.3-0.5 0.1-0.9 0.1-1.4 0.1-4 0.1-7.7-1.7-10.6-4.2-2.8-2.6-5-5.6-6.9-8.8-1.9-3.2-3.4-6.5-4.8-9.9-2.8-6.8-5-13.9-6.8-21-3.7-14.2-6.2-28.7-8.2-43.3-2-14.5-3.4-29.2-4.5-44q-0.8-11.1-1.2-22.2-0.2-5.5-0.2-11.1c-0.1-3.7 0-7.4 0-11.2q0.1-5.5 0.2-11.1c0.1-1.9 0.1-3.7 0.2-5.6l0.2-5.6c0.5-7.4 0.7-14.9 1.4-22.3 2.5-29.8 7.2-59.5 14.9-88.6l3.1-10.8 1.6-5.5 1.8-5.3c1.2-3.6 2.4-7.2 3.6-10.7l4.1-10.6c1.3-3.5 2.9-6.9 4.4-10.4 1.6-3.5 3-7 4.8-10.3 1.7-3.4 3.3-6.8 5-10.2l5.5-9.9c7.6-13.1 16.2-25.6 25.9-37.3 9.7-11.7 20.4-22.6 32.3-32.1l4.4-3.6 4.7-3.3 2.3-1.7q1.1-0.8 2.3-1.6l4.8-3.1c0.8-0.5 1.6-1 2.4-1.5l2.5-1.4 5-2.9c1.7-0.9 3.4-1.7 5.1-2.6l2.5-1.3c0.9-0.4 1.8-0.8 2.6-1.1l5.3-2.4c1.7-0.7 3.5-1.3 5.3-2 0.9-0.3 1.8-0.7 2.7-1l2.7-0.9 2.8-0.8c0.9-0.3 1.8-0.6 2.7-0.8l5.6-1.4c1.8-0.4 3.7-0.7 5.6-1q0.7-0.2 1.4-0.3l1.5-0.2 2.8-0.3c2-0.3 3.9-0.3 5.7-0.4h1.5c0.4-0.1 1-0.1 1.4 0l2.9 0.1c1.9 0.1 3.8 0 5.7 0.3l5.8 0.7c1.8 0.3 3.7 0.7 5.6 1 0.9 0.2 1.9 0.4 2.8 0.6l2.8 0.7c1.8 0.5 3.7 0.9 5.5 1.5 3.6 1.2 7.3 2.3 10.8 3.9 1.8 0.7 3.6 1.4 5.3 2.2l5.1 2.4c0.9 0.4 1.8 0.8 2.6 1.3l2.5 1.4 5 2.7c1.7 1 3.2 2.1 4.9 3.1l2.4 1.5q1.2 0.7 2.3 1.6l4.7 3.3 2.3 1.7q1.1 0.8 2.2 1.7c12 9.4 22.9 20.2 32.6 31.8 9.8 11.6 18.4 24.2 26.1 37.2 15.1 26.3 26.3 54.6 34.4 83.6 7.9 29 13.1 58.7 15.6 88.4 0.6 7.5 1.4 14.9 1.6 22.3q0.3 5.6 0.5 11.2c0.1 1.9 0.2 3.7 0.2 5.6l0.1 5.5q0.1 5.6 0.2 11.2c0 3.7-0.1 7.4-0.2 11.1q-0.3 11.1-1 22.2c-1 14.8-2.3 29.5-4.1 44.1-1.9 14.6-4.1 29.1-7.4 43.4-1.6 7.2-3.5 14.2-5.8 21.2-2.5 6.9-5.3 13.8-9.8 19.8-1.1 1.4-2.4 2.8-3.9 4.1-1.5 1.2-3.2 2.2-5.1 2.7-0.5 0.2-1 0.3-1.5 0.4-0.5 0.1-0.9 0.1-1.4 0.1-0.4 0.1-1.1 0-1.5 0-0.5 0-1-0.1-1.4-0.2-2-0.4-3.8-1.1-5.4-2.1-3.3-2.1-5.8-4.9-7.9-7.9-2.1-3.1-3.8-6.3-5.4-9.6-3-6.7-5.3-13.6-7.2-20.5-2-7-3.6-14-4.9-21-2.8-14.1-4.8-28.3-6.3-42.4q-2.3-21.2-3.3-42.3c-0.3-7.1-0.5-14.1-0.6-21.1 0-7 0.2-14 0.5-21 0.7-14 1.9-27.8 3.4-41.6 1.5-13.7 3.3-27.3 5.4-40.9 4.2-27 9.4-53.6 15.9-79.5 6.6-25.9 14.3-51.2 24.5-75.3 5.1-12 10.7-23.7 17.6-34.6 3.4-5.5 7-10.8 11.1-15.8 4.1-4.9 8.5-9.6 13.5-13.6 5-3.9 10.5-7.4 16.6-9.4 1.5-0.5 3-1.1 4.6-1.4 0.8-0.1 1.5-0.3 2.3-0.5l2.4-0.3 1.2-0.2h1.2l2.3-0.1c0.9-0.1 1.6 0 2.4 0 0.8 0 1.6 0 2.4 0.1 1.6 0.1 3.1 0.3 4.7 0.5 1.6 0.2 3.1 0.6 4.6 0.9 3.1 0.7 6.1 1.5 9 2.7 5.9 2.2 11.3 5.4 16.3 9 4.9 3.7 9.5 7.9 13.6 12.5 4.1 4.5 7.8 9.4 11.2 14.4 6.7 10 12.2 20.7 16.8 31.6 9.3 21.8 15.5 44.4 20 66.7 4.4 22.3 7 44.5 8 66.2 0.4 10.9 0.3 21.7-0.1 32.3q-0.6 15.9-2.1 31.4c-1 10.3-2.2 20.5-3.9 30.5-1.7 9.9-3.9 19.7-7.2 29-1.7 4.7-3.6 9.2-6.5 13.3-1.4 2-3.1 3.9-5.2 5.3-1 0.7-2.2 1.3-3.4 1.6-0.6 0.3-1.2 0.3-1.9 0.5h-0.9c-0.3 0-0.7 0-1 0-2.5-0.1-4.9-1.2-6.9-2.7-1.9-1.5-3.5-3.4-4.9-5.4-2.6-3.9-4.5-8.3-6.2-12.6-3.2-8.8-5.2-17.7-6.9-26.5-1.6-8.8-2.9-17.5-3.8-26-2-17.2-3-33.8-3.4-49.8-0.3-8 0-15.8 0.1-23.5 0.4-7.7 0.7-15.2 1.5-22.5 1.4-14.6 3.5-28.4 6.4-41.4 6-25.8 15.3-48 26.5-65.4 11.1-17.5 23.9-30 35.5-38.3 11.6-8.3 22-12.4 29.1-14.5 3.5-0.9 6.3-1.4 8.2-1.6 1-0.1 1.7-0.1 2.1-0.2q0.7 0 0.7 0z"/>
		<path id="&lt;Path&gt;" class="s1" d="m238.6 262.1c0 25.7-20.9 46.6-46.6 46.6-25.7 0-46.6-20.9-46.6-46.6 0-25.7 20.9-46.6 46.6-46.6 25.7 0 46.6 20.9 46.6 46.6z"/>
		<path id="&lt;Path&gt;" class="s1" d="m667.7 262.1c0 25.7-20.8 46.6-46.5 46.6-25.8 0-46.6-20.9-46.6-46.6 0-25.7 20.8-46.6 46.6-46.6 25.7 0 46.5 20.9 46.5 46.6z"/>
		<path id="&lt;Compound Path&gt;" class="s0" d="m411.9 159.9c-36 0-65.3 38.9-65.3 86.7 0 47.8 29.3 86.7 65.3 86.7 36.1 0 65.4-38.9 65.4-86.7 0-47.8-29.3-86.7-65.4-86.7zm-58.2 71.1c1.3-8.6 3.5-16.6 6.6-24l4.3 7.1-10.8 16.9zm13.7-12.1l14.4 23.5-10.2 17.8-15-24.4zm29.6-46.1l13.3 19.6-10.9 19.1-13.4-21.5zm-14 12.5l-3.8-6c4.1-3.7 8.6-6.7 13.4-8.9zm88.1 61.4q0 1.4 0 2.8l-7.2 12.8-10.1-14.8 9.4-15.9 7.9 10.7q0 2.2 0 4.4zm-5.2-19.7l2.6-4.4q1.1 5 1.8 10.2zm-3.3-4.3l-17.4-23.6 6.6-11.9c6.3 8 11.4 17.7 14.8 28.7zm-2.8 4.7l-9.2 15.7-16.4-24.2 8.3-15zm-42.6 22.2l15.3 24.4-12.7 21.6-14.8-24.2zm-15.1 17l-14.6-24.1 12-21.1 14.7 23.4zm17.9-21.9l11.5-20.8 16.4 24.1-12.5 21.2zm11.1-30.3l-15-22 7.8-13.6 15.4 20.8zm-2.7 4.9l-11.4 20.6-14.7-23.4 11-19.2zm-31.8-2.7l-12.1 21.1-14.1-23.3 12.5-19.6zm-11.9 30.9l14.8 24.1-10 17.9-14.9-24.2zm17.7 29l14.7 24-10.2 17.3-14.4-23.4zm1.6 46.2l-2.1 3.7c-7.7-1.8-14.8-5.5-21.2-10.8l9-16.2zm5.8-0.1l10.2-17.3 10.3 17-0.9 1.6c-5.3 2.2-10.8 3.5-16.6 3.6zm13-22.2l12.7-21.6 10.2 16.1-12.6 22.3zm15.6-26.5l12.5-21.4 10.2 14.9-12.7 22.5zm25.9-1.9l2.7 4.1c-2.6 9.3-6.6 17.8-11.5 25.1l-4-6.5zm2.7-4.8l3.1-5.5q-0.6 4-1.4 7.9zm-18.7-83.7l-6.3 11.4-15.4-20.8 2.5-4.3c7 2.9 13.5 7.6 19.2 13.7zm-24.9-13.8l-1.7-2.2q1.3 0.2 2.6 0.6zm-8.7-3.3l6 8.1-7.7 13.4-13.2-19.4 0.5-0.6c3.7-1 7.5-1.6 11.4-1.6q1.5 0 3 0.1zm-39.2 16.8l4.4 7.1-12.5 19.5-4.8-7.9c3.5-7.1 7.9-13.4 12.9-18.7zm-23 59.1l1-1.5 15.2 24.7-10 17.5c-4-10.8-6.3-23.1-6.3-36q0-2.3 0.1-4.7zm8.5 46.6l10.7-18.6 14.9 24.3-9.7 17.6c-6.4-6.3-11.8-14.2-15.9-23.3zm76.6 30.7l11.1-19.7 3.7 5.8c-4.4 5.6-9.4 10.3-14.8 13.9z"/>
		<path id="&lt;Path&gt;" class="s2" d="m382.7 105.9c-5.6 0-5.1 7.5 0.2 7.5 6.8 0 23.6 11 23.6 14 0 1.4 3.9 1.4 3.9 0 0-5.9 17.9-21.5 21.7-21.5 2.8 0 4.3-8.9 4.3-12.8 0-6.7-23.1-52.7-32.9-69-1.3-2.3-5.1-3.2-5.1 0 0 5 3.9 28.9 3.9 47.1 0 23.3-15.7 34.7-19.6 34.7z"/>
		<path id="&lt;Path&gt;" class="s1" d="m312.7 100.2c-3.4 0-3.9 4.2 0 4.2 4.9 0 50.5 31.6 50.5 54.5 0 3.1 2.7 2 3.8 2 6.3 0 22-11.4 22-23.2 0-18.4-46.3-37.5-76.3-37.5z"/>
		<path id="&lt;Path&gt;" class="s1" d="m411.5 138.2c0 1.8 2.5 6 3.8 6 1.9 0 1.4-2.4 7.6-2.4 13.5 0 26.6 12.4 28.3 12.4 1.4 0 27.9-29.3 40-29.3 0.8 0 2.1-1.4 2.1-2.2 0-2.4-17.3-14.9-35.1-14.9-31.8 0-46.7 26.4-46.7 30.4z"/>
	</g>
</svg>